PathFileType	4	(X/Y/Z)	C:\Users\willi\Documents\UniDataLokal\DATA_Hans_PhD\TD06\B\3DGAIT_B_W12\marker_experimental.trc
DataRate	CameraRate	NumFrames	NumMarkers	Units	OrigDataRate	OrigDataStartFrame	OrigNumFrames
100.000000	100.000000	4	86	mm	100.000000	24	99
Frame#	Time	RBAK			C7			CLAV			T10			STRN			RASI			RPSI			LPSI			LASI			LPELV			RPELV			RTHI1			RTHI2			RTHI3			RTHI			RKNE			RPAT			RLKNEL			RLKNEM			RLPAT			RTIB1			RTIB2			RTIB3			RTIB			RANK			RHEEL			RTOE			RM5			LTHI1			LTHI2			LTHI3			LTHI			LKNE			LPAT			LLKNE			LLKNEM			LLPAT			LTIB1			LTIB2			LTIB3			LTIB			LANK			LHEEL			LTOE			LM5			*45			*46			*47			*48			*49			*50			*51			*52			*53			*54			*55			*56			*57			*58			*59			*60			*61			*62			*63			*64			*65			*66			*67			*68			*69			*70			*71			*72			*73			*74			*75			*76			*77			*78			*79			*80			*81			*82			*83			*84			*85			
		X1	Y1	Z1	X2	Y2	Z2	X3	Y3	Z3	X4	Y4	Z4	X5	Y5	Z5	X6	Y6	Z6	X7	Y7	Z7	X8	Y8	Z8	X9	Y9	Z9	X10	Y10	Z10	X11	Y11	Z11	X12	Y12	Z12	X13	Y13	Z13	X14	Y14	Z14	X15	Y15	Z15	X16	Y16	Z16	X17	Y17	Z17	X18	Y18	Z18	X19	Y19	Z19	X20	Y20	Z20	X21	Y21	Z21	X22	Y22	Z22	X23	Y23	Z23	X24	Y24	Z24	X25	Y25	Z25	X26	Y26	Z26	X27	Y27	Z27	X28	Y28	Z28	X29	Y29	Z29	X30	Y30	Z30	X31	Y31	Z31	X32	Y32	Z32	X33	Y33	Z33	X34	Y34	Z34	X35	Y35	Z35	X36	Y36	Z36	X37	Y37	Z37	X38	Y38	Z38	X39	Y39	Z39	X40	Y40	Z40	X41	Y41	Z41	X42	Y42	Z42	X43	Y43	Z43	X44	Y44	Z44	X45	Y45	Z45	X46	Y46	Z46	X47	Y47	Z47	X48	Y48	Z48	X49	Y49	Z49	X50	Y50	Z50	X51	Y51	Z51	X52	Y52	Z52	X53	Y53	Z53	X54	Y54	Z54	X55	Y55	Z55	X56	Y56	Z56	X57	Y57	Z57	X58	Y58	Z58	X59	Y59	Z59	X60	Y60	Z60	X61	Y61	Z61	X62	Y62	Z62	X63	Y63	Z63	X64	Y64	Z64	X65	Y65	Z65	X66	Y66	Z66	X67	Y67	Z67	X68	Y68	Z68	X69	Y69	Z69	X70	Y70	Z70	X71	Y71	Z71	X72	Y72	Z72	X73	Y73	Z73	X74	Y74	Z74	X75	Y75	Z75	X76	Y76	Z76	X77	Y77	Z77	X78	Y78	Z78	X79	Y79	Z79	X80	Y80	Z80	X81	Y81	Z81	X82	Y82	Z82	X83	Y83	Z83	X84	Y84	Z84	X85	Y85	Z85	X86	Y86	Z86	

25	0.24	759.3845214843749	1059.36181640625	-159.0532073974608	758.2099609374999	1151.479858398438	-264.1385498046874	861.9545288085936	1093.89404296875	-284.1183166503905	745.4094848632812	922.9525146484375	-254.5209197998045	909.9487304687499	982.3042602539062	-295.9517822265623	844.2675170898438	783.5721435546875	-173.6336669921874	718.8610229492188	823.4556274414062	-211.199020385742	711.2221069335938	825.2383422851562	-299.2782287597655	822.9074096679689	782.256103515625	-367.6671142578123	787.4979858398439	824.9063110351562	-381.0964965820311	804.1549072265625	832.8713989257812	-152.1100921630858	879.6555786132812	503.3337707519532	-227.6971588134764	871.1386108398438	540.6453247070312	-169.370162963867	864.6655883789062	442.2312011718751	-191.9656829833983	833.0593872070312	464.4071655273438	-126.6261596679686	841.978271484375	401.6776428222657	-181.7342224121092	880.3630981445312	413.1320800781251	-237.1973419189451	842.7060546875	376.6780700683594	-187.7906646728514	817.0006103515625	369.4346618652344	-281.4276428222655	868.7144775390625	350.0045471191407	-230.8279418945311	863.685791015625	272.6328430175782	-219.9585723876951	833.880859375	229.2411499023438	-179.8484802246092	845.4527587890625	181.4065093994141	-226.1066589355467	811.1596069335938	179.6978607177735	-149.0065917968749	796.4151000976562	59.4708976745606	-202.4282073974608	741.3656005859375	44.50534057617192	-238.6389770507811	907.3966674804688	37.46031188964849	-235.4407806396483	888.2034912109375	17.64618682861333	-185.6181793212889	831.2243652343751	562.8690185546875	-410.6586914062498	877.0562133789064	521.9160766601562	-383.2386169433592	847.1367187500001	465.8247375488282	-407.2394409179686	832.1463623046876	507.8404846191407	-450.447784423828	842.4460449218751	398.8515014648438	-409.6573791503905	898.4705810546876	393.7549438476563	-371.4759826660155	824.2284545898439	375.7305603027344	-412.1565551757811	827.152587890625	364.3151245117188	-307.6652832031248	856.2550048828126	339.3834228515626	-369.4935302734373	762.7774047851564	265.8656311035157	-380.889678955078	699.6480712890626	269.8435668945313	-413.8272094726561	687.0108642578126	208.2016296386719	-375.3819580078124	649.2212524414064	250.3913269042969	-441.8784179687499	584.5789184570314	173.6399688720703	-393.5851745605468	543.6798706054689	202.5404510498047	-361.6187133789061	632.2330932617189	69.11031341552739	-354.5350952148436	606.6276245117189	72.51610565185551	-398.3183593749999	nan	nan	nan	nan	nan	nan	nan	nan	nan	nan	nan	nan	nan	nan	nan	nan	nan	nan	nan	nan	nan	nan	nan	nan	nan	nan	nan	nan	nan	nan	nan	nan	nan	nan	nan	nan	nan	nan	nan	nan	nan	nan	nan	nan	nan	nan	nan	nan	nan	nan	nan	nan	nan	nan	nan	nan	nan	nan	nan	nan	nan	nan	nan	nan	nan	nan	nan	nan	nan	nan	nan	nan	nan	nan	nan	nan	nan	nan	nan	nan	nan	nan	nan	nan	nan	nan	nan	nan	nan	nan	nan	nan	nan	nan	nan	nan	nan	nan	nan	nan	nan	nan	nan	nan	nan	nan	nan	nan	nan	nan	nan	nan	nan	nan	nan	nan	nan	nan	nan	nan	nan	nan	nan	
26	0.25	774.4887695312499	1062.547485351562	-159.1008300781249	772.8404541015624	1154.290771484375	-264.4091491699218	876.1294555664061	1096.503295898438	-284.8261108398436	759.6857299804688	925.3944702148438	-254.5804290771483	924.1392211914061	984.956298828125	-296.7718811035155	858.7379150390625	785.5748901367188	-174.1528167724608	733.4568481445312	825.8253784179688	-211.666046142578	725.5437622070312	827.86865234375	-299.7094116210936	837.3672485351564	785.0872192382812	-368.065948486328	801.7595214843751	827.8065185546875	-381.5405883789061	818.7938232421875	835.0018920898438	-152.647262573242	886.2073974609375	502.4066467285157	-227.4418334960936	878.7916870117188	540.1111450195312	-169.2556762695311	868.98095703125	441.9131774902344	-191.5971832275389	838.28271484375	465.3436584472657	-126.3734817504881	845.1378784179688	402.3138427734376	-181.3841247558592	883.7667846679688	412.4981994628907	-236.7045898437498	845.3765869140625	377.3042907714844	-187.3343505859374	819.8492431640625	370.3441772460938	-281.0320739746092	871.197998046875	350.2084045410157	-230.2758941650389	865.50244140625	273.2076721191407	-219.390914916992	835.246826171875	229.9882812500001	-179.3884887695311	846.734375	182.0605773925782	-225.5901031494139	812.1172485351562	180.6889648437501	-148.7126617431639	796.8629150390625	60.34706115722661	-202.4010925292967	741.8197631835938	46.14356994628911	-238.7000885009764	908.0789794921875	37.06972122192388	-235.4063415527342	888.3643188476562	17.40780639648443	-185.6005401611326	851.4086914062501	567.9767456054688	-411.8173828124998	897.9402465820314	528.4142456054688	-383.7091369628905	870.3267211914064	471.5015258789063	-408.2097167968748	854.7553100585939	513.0460205078125	-451.8057556152342	866.8128051757814	404.3031616210938	-410.5187683105467	923.2597656250001	400.9770812988282	-372.4947814941405	848.9154052734376	380.6639404296876	-412.8356018066405	852.9780883789062	368.8603515625001	-308.6867675781248	882.9220581054689	345.2573242187501	-370.8001708984373	792.1565551757814	268.1551818847657	-382.359893798828	728.4601440429689	270.1081848144532	-414.1030883789061	719.1891479492189	207.2308197021485	-376.6974182128905	678.3920288085939	249.1027221679688	-441.6750183105468	618.5391845703126	168.3306121826172	-393.8492126464843	575.8582763671876	193.8323364257813	-360.3408813476561	674.5212402343751	67.05233001708989	-358.6849975585936	647.7773437500001	69.81585693359379	-401.9588012695311	nan	nan	nan	nan	nan	nan	nan	nan	nan	nan	nan	nan	nan	nan	nan	nan	nan	nan	nan	nan	nan	nan	nan	nan	nan	nan	nan	nan	nan	nan	nan	nan	nan	nan	nan	nan	nan	nan	nan	nan	nan	nan	nan	nan	nan	nan	nan	nan	nan	nan	nan	nan	nan	nan	nan	nan	nan	nan	nan	nan	nan	nan	nan	nan	nan	nan	nan	nan	nan	nan	nan	nan	nan	nan	nan	nan	nan	nan	nan	nan	nan	nan	nan	nan	nan	nan	nan	nan	nan	nan	nan	nan	nan	nan	nan	nan	nan	nan	nan	nan	nan	nan	nan	nan	nan	nan	nan	nan	nan	nan	nan	nan	nan	nan	nan	nan	nan	nan	nan	nan	nan	nan	nan	
27	0.26	789.4576416015624	1065.455932617188	-159.2104187011717	787.4066162109374	1156.792602539062	-264.7322387695311	890.2767333984374	1098.802124023438	-285.4462890624998	773.8726196289062	927.5128784179688	-254.7753295898436	938.3114624023436	987.2699584960939	-297.4270629882811	873.0776977539062	787.2611083984375	-174.7112579345701	747.9158935546875	827.8765258789062	-212.2612152099608	739.8394775390625	830.1517333984375	-300.2837524414061	851.8286132812501	787.563720703125	-368.5444335937498	816.0827026367189	830.3419189453125	-382.078399658203	833.2655029296875	836.7974243164062	-153.2348175048827	892.7310180664062	501.5083923339844	-227.1197662353514	886.345947265625	539.601806640625	-169.1022186279295	873.2693481445312	441.7179565429688	-191.2010498046873	843.4255981445312	466.3892517089844	-126.1347122192381	848.3246459960938	403.0728149414063	-181.0718841552733	887.1651611328125	412.0011596679688	-236.1892852783201	848.0659790039062	378.0506591796876	-186.9228515624999	822.8613891601562	371.3562927246094	-280.6888122558592	873.759033203125	350.5433654785157	-229.7199096679686	867.3787841796875	273.8881225585938	-218.8322448730467	836.66015625	230.8590240478516	-178.9916534423827	848.09912109375	182.8265686035157	-225.1234436035155	813.037841796875	181.8084411621094	-148.5333557128905	797.3173217773438	61.37266159057622	-202.4597015380858	742.3812866210938	47.94140625000004	-238.9858551025389	908.7431640625	36.7326393127442	-235.3278656005858	888.4946899414062	17.22763061523443	-185.5903472900389	870.9946289062501	572.7386474609375	-413.0790100097655	918.1397094726564	534.4417114257812	-384.3900451660155	892.6690673828126	476.8524475097657	-409.2786865234373	876.5425415039064	517.926513671875	-453.2129516601561	890.2631225585939	409.4375915527344	-411.4132995605467	947.1683349609376	407.9558105468751	-373.6276550292967	872.7694702148439	385.2139892578126	-413.5411376953123	878.2100830078126	373.1459350585938	-309.7350158691405	908.9162597656251	350.9713439941407	-372.1703491210936	821.5593872070314	270.0566101074219	-383.8133544921873	757.2964477539064	269.3476867675782	-414.2645568847655	751.8157958984376	205.4254608154297	-377.8118286132811	707.8447265625001	246.4150848388672	-441.3013305664061	653.2489624023439	161.7598724365235	-393.8223876953124	609.0639038085939	183.6454010009766	-358.6793823242186	717.4051513671876	64.63361358642582	-362.5253295898436	689.5002441406251	66.50160217285161	-405.202911376953	nan	nan	nan	nan	nan	nan	nan	nan	nan	nan	nan	nan	nan	nan	nan	nan	nan	nan	nan	nan	nan	nan	nan	nan	nan	nan	nan	nan	nan	nan	nan	nan	nan	nan	nan	nan	nan	nan	nan	nan	nan	nan	nan	nan	nan	nan	nan	nan	nan	nan	nan	nan	nan	nan	nan	nan	nan	nan	nan	nan	nan	nan	nan	nan	nan	nan	nan	nan	nan	nan	nan	nan	nan	nan	nan	nan	nan	nan	nan	nan	nan	nan	nan	nan	nan	nan	nan	nan	nan	nan	nan	nan	nan	nan	nan	nan	nan	nan	nan	nan	nan	nan	nan	nan	nan	nan	nan	nan	nan	nan	nan	nan	nan	nan	nan	nan	nan	nan	nan	nan	nan	nan	nan	
28	0.27	804.3085327148436	1068.0478515625	-159.3796234130858	801.9266967773436	1158.93896484375	-265.113555908203	904.4236450195311	1100.746826171875	-285.9810791015623	787.9766235351561	929.2769165039062	-255.1247100830077	952.4815673828124	989.1967773437501	-297.9083862304686	887.2639770507812	788.614013671875	-175.2935638427733	762.23095703125	829.5782470703125	-213.0036468505858	754.1160888671875	832.0439453125	-301.0198669433593	866.3134765625001	789.629638671875	-369.0885925292967	830.4860229492189	832.4578247070312	-382.7107543945311	847.545166015625	838.2399291992188	-153.8722381591795	899.2838134765625	500.6272583007813	-226.7013854980467	893.8250122070312	539.1030883789062	-168.8822326660155	877.5732421875	441.6164550781251	-190.7599487304686	848.4703979492188	467.5063171386719	-125.9070892333983	851.586669921875	403.9173889160157	-180.7937164306639	890.6382446289062	411.6142272949219	-235.6407775878905	850.8275756835938	378.8814086914063	-186.5529937744139	826.1071166992188	372.4396667480469	-280.405059814453	876.4512939453125	350.9676208496094	-229.1568450927733	869.3552856445312	274.6350402832032	-218.278610229492	838.1385498046875	231.8208923339844	-178.6610260009764	849.5596923828125	183.6756896972657	-224.7077789306639	813.9248657226562	183.0265502929688	-148.4710540771483	797.7705688476562	62.52615356445317	-202.6026763916014	743.0252685546875	49.86280822753911	-239.4777832031249	909.372314453125	36.45869827270513	-235.2160034179686	888.5899658203125	17.10739135742193	-185.5873565673826	889.9658813476564	577.0033569335938	-414.3955078124998	937.6640625000001	539.8541259765626	-385.2244873046873	914.1346435546876	481.7090759277344	-410.3820190429686	897.4728393554689	522.316162109375	-454.6044616699217	912.8021850585939	414.0949096679688	-412.302276611328	970.1627197265626	414.5474548339844	-374.8258056640623	895.8186645507814	389.2219848632813	-414.2433776855467	902.7871093750001	377.0845642089844	-310.7714538574217	934.1829833984376	356.4064025878907	-373.5394592285155	850.9561767578126	271.5058593750001	-385.2044982910155	786.2214355468751	267.5528259277344	-414.3417663574217	784.8869018554689	202.8878326416016	-378.7054748535155	737.6816406250001	242.3420410156251	-440.813507080078	688.7497558593751	154.0888977050782	-393.5570678710936	643.3695678710939	172.2052001953125	-356.7708740234374	760.8130493164064	62.00900650024419	-365.9938964843749	731.7843017578126	62.66455841064457	-408.0043640136718	nan	nan	nan	nan	nan	nan	nan	nan	nan	nan	nan	nan	nan	nan	nan	nan	nan	nan	nan	nan	nan	nan	nan	nan	nan	nan	nan	nan	nan	nan	nan	nan	nan	nan	nan	nan	nan	nan	nan	nan	nan	nan	nan	nan	nan	nan	nan	nan	nan	nan	nan	nan	nan	nan	nan	nan	nan	nan	nan	nan	nan	nan	nan	nan	nan	nan	nan	nan	nan	nan	nan	nan	nan	nan	nan	nan	nan	nan	nan	nan	nan	nan	nan	nan	nan	nan	nan	nan	nan	nan	nan	nan	nan	nan	nan	nan	nan	nan	nan	nan	nan	nan	nan	nan	nan	nan	nan	nan	nan	nan	nan	nan	nan	nan	nan	nan	nan	nan	nan	nan	nan	nan	nan	
